<mxfile host="app.diagrams.net" agent="Mozilla/5.0 (Windows NT 10.0; Win64; x64) AppleWebKit/537.36 (KHTML, like Gecko) Chrome/130.0.0.0 Safari/537.36" version="24.7.17">
  <diagram name="Page-1" id="1QrzyosHLY6H9AkxcwBx">
    <mxGraphModel dx="1843" dy="746" grid="1" gridSize="10" guides="1" tooltips="1" connect="1" arrows="1" fold="1" page="1" pageScale="1" pageWidth="850" pageHeight="1100" math="0" shadow="0">
      <root>
        <mxCell id="0" />
        <mxCell id="1" parent="0" />
        <mxCell id="BO9AZAVn0g_Hce8t9gI5-1" value="AWS Cloud" style="sketch=0;outlineConnect=0;gradientColor=none;html=1;whiteSpace=wrap;fontSize=12;fontStyle=0;shape=mxgraph.aws4.group;grIcon=mxgraph.aws4.group_aws_cloud;strokeColor=#AAB7B8;fillColor=none;verticalAlign=top;align=left;spacingLeft=30;fontColor=#AAB7B8;dashed=0;" parent="1" vertex="1">
          <mxGeometry x="210" y="250" width="870" height="720" as="geometry" />
        </mxCell>
        <mxCell id="BO9AZAVn0g_Hce8t9gI5-2" value="Route53" style="sketch=0;points=[[0,0,0],[0.25,0,0],[0.5,0,0],[0.75,0,0],[1,0,0],[0,1,0],[0.25,1,0],[0.5,1,0],[0.75,1,0],[1,1,0],[0,0.25,0],[0,0.5,0],[0,0.75,0],[1,0.25,0],[1,0.5,0],[1,0.75,0]];outlineConnect=0;fontColor=#232F3E;fillColor=#8C4FFF;strokeColor=#ffffff;dashed=0;verticalLabelPosition=bottom;verticalAlign=top;align=center;html=1;fontSize=12;fontStyle=0;aspect=fixed;shape=mxgraph.aws4.resourceIcon;resIcon=mxgraph.aws4.route_53;" parent="1" vertex="1">
          <mxGeometry x="620" y="290" width="48" height="48" as="geometry" />
        </mxCell>
        <mxCell id="BO9AZAVn0g_Hce8t9gI5-3" value="us-west-1" style="points=[[0,0],[0.25,0],[0.5,0],[0.75,0],[1,0],[1,0.25],[1,0.5],[1,0.75],[1,1],[0.75,1],[0.5,1],[0.25,1],[0,1],[0,0.75],[0,0.5],[0,0.25]];outlineConnect=0;gradientColor=none;html=1;whiteSpace=wrap;fontSize=12;fontStyle=0;container=1;pointerEvents=0;collapsible=0;recursiveResize=0;shape=mxgraph.aws4.group;grIcon=mxgraph.aws4.group_region;strokeColor=#00A4A6;fillColor=none;verticalAlign=top;align=left;spacingLeft=30;fontColor=#147EBA;dashed=1;" parent="1" vertex="1">
          <mxGeometry x="230" y="360" width="350" height="590" as="geometry" />
        </mxCell>
        <mxCell id="BO9AZAVn0g_Hce8t9gI5-6" value="VPC" style="sketch=0;outlineConnect=0;gradientColor=none;html=1;whiteSpace=wrap;fontSize=12;fontStyle=0;shape=mxgraph.aws4.group;grIcon=mxgraph.aws4.group_vpc;strokeColor=#879196;fillColor=none;verticalAlign=top;align=left;spacingLeft=30;fontColor=#879196;dashed=0;" parent="BO9AZAVn0g_Hce8t9gI5-3" vertex="1">
          <mxGeometry x="20" y="60" width="290" height="390" as="geometry" />
        </mxCell>
        <mxCell id="BO9AZAVn0g_Hce8t9gI5-17" value="AWS S3 Bucket" style="outlineConnect=0;dashed=0;verticalLabelPosition=bottom;verticalAlign=top;align=center;html=1;shape=mxgraph.aws3.s3;fillColor=#E05243;gradientColor=none;" parent="BO9AZAVn0g_Hce8t9gI5-3" vertex="1">
          <mxGeometry x="140" y="480" width="60" height="73" as="geometry" />
        </mxCell>
        <mxCell id="BO9AZAVn0g_Hce8t9gI5-20" value="Private subnet" style="points=[[0,0],[0.25,0],[0.5,0],[0.75,0],[1,0],[1,0.25],[1,0.5],[1,0.75],[1,1],[0.75,1],[0.5,1],[0.25,1],[0,1],[0,0.75],[0,0.5],[0,0.25]];outlineConnect=0;gradientColor=none;html=1;whiteSpace=wrap;fontSize=12;fontStyle=0;container=1;pointerEvents=0;collapsible=0;recursiveResize=0;shape=mxgraph.aws4.group;grIcon=mxgraph.aws4.group_security_group;grStroke=0;strokeColor=#00A4A6;fillColor=#E6F6F7;verticalAlign=top;align=left;spacingLeft=30;fontColor=#147EBA;dashed=0;" parent="BO9AZAVn0g_Hce8t9gI5-3" vertex="1">
          <mxGeometry x="80" y="90" width="190" height="340" as="geometry" />
        </mxCell>
        <mxCell id="BO9AZAVn0g_Hce8t9gI5-50" value="&amp;nbsp;RDS Master DB" style="outlineConnect=0;dashed=0;verticalLabelPosition=bottom;verticalAlign=top;align=center;html=1;shape=mxgraph.aws3.rds_db_instance;fillColor=#2E73B8;gradientColor=none;" parent="BO9AZAVn0g_Hce8t9gI5-3" vertex="1">
          <mxGeometry x="142.5" y="290" width="49.5" height="66" as="geometry" />
        </mxCell>
        <mxCell id="I5FXzIUGxQxFdgfo1vXz-3" value="" style="edgeStyle=orthogonalEdgeStyle;rounded=0;orthogonalLoop=1;jettySize=auto;html=1;" edge="1" parent="BO9AZAVn0g_Hce8t9gI5-3" target="BO9AZAVn0g_Hce8t9gI5-50">
          <mxGeometry relative="1" as="geometry">
            <mxPoint x="167" y="220" as="sourcePoint" />
          </mxGeometry>
        </mxCell>
        <mxCell id="BO9AZAVn0g_Hce8t9gI5-23" value="EC2" style="outlineConnect=0;dashed=0;verticalLabelPosition=bottom;verticalAlign=top;align=center;html=1;shape=mxgraph.aws3.ec2;fillColor=#F58534;gradientColor=none;" parent="BO9AZAVn0g_Hce8t9gI5-3" vertex="1">
          <mxGeometry x="142.5" y="140" width="55" height="71" as="geometry" />
        </mxCell>
        <mxCell id="I5FXzIUGxQxFdgfo1vXz-2" value="" style="endArrow=classic;html=1;rounded=0;entryX=0.5;entryY=0.02;entryDx=0;entryDy=0;entryPerimeter=0;" edge="1" parent="BO9AZAVn0g_Hce8t9gI5-3" target="BO9AZAVn0g_Hce8t9gI5-50">
          <mxGeometry width="50" height="50" relative="1" as="geometry">
            <mxPoint x="167" y="230" as="sourcePoint" />
            <mxPoint x="220" y="150" as="targetPoint" />
          </mxGeometry>
        </mxCell>
        <mxCell id="I5FXzIUGxQxFdgfo1vXz-5" value="" style="endArrow=classic;html=1;rounded=0;entryX=0;entryY=0.5;entryDx=0;entryDy=0;entryPerimeter=0;" edge="1" parent="BO9AZAVn0g_Hce8t9gI5-3" target="BO9AZAVn0g_Hce8t9gI5-17">
          <mxGeometry width="50" height="50" relative="1" as="geometry">
            <mxPoint x="140" y="170" as="sourcePoint" />
            <mxPoint x="-90" y="200" as="targetPoint" />
            <Array as="points">
              <mxPoint x="60" y="170" />
              <mxPoint x="60" y="516" />
            </Array>
          </mxGeometry>
        </mxCell>
        <mxCell id="I5FXzIUGxQxFdgfo1vXz-7" value="&lt;b&gt;&lt;font style=&quot;font-size: 14px;&quot;&gt;application&lt;br&gt;code&lt;/font&gt;&lt;/b&gt;" style="text;html=1;align=center;verticalAlign=middle;whiteSpace=wrap;rounded=0;" vertex="1" parent="BO9AZAVn0g_Hce8t9gI5-3">
          <mxGeometry x="80" y="470" width="60" height="30" as="geometry" />
        </mxCell>
        <mxCell id="BO9AZAVn0g_Hce8t9gI5-25" value="us-east-1" style="points=[[0,0],[0.25,0],[0.5,0],[0.75,0],[1,0],[1,0.25],[1,0.5],[1,0.75],[1,1],[0.75,1],[0.5,1],[0.25,1],[0,1],[0,0.75],[0,0.5],[0,0.25]];outlineConnect=0;gradientColor=none;html=1;whiteSpace=wrap;fontSize=12;fontStyle=0;container=1;pointerEvents=0;collapsible=0;recursiveResize=0;shape=mxgraph.aws4.group;grIcon=mxgraph.aws4.group_region;strokeColor=#00A4A6;fillColor=none;verticalAlign=top;align=left;spacingLeft=30;fontColor=#147EBA;dashed=1;" parent="1" vertex="1">
          <mxGeometry x="710" y="360" width="350" height="590" as="geometry" />
        </mxCell>
        <mxCell id="BO9AZAVn0g_Hce8t9gI5-28" value="Private subnet" style="points=[[0,0],[0.25,0],[0.5,0],[0.75,0],[1,0],[1,0.25],[1,0.5],[1,0.75],[1,1],[0.75,1],[0.5,1],[0.25,1],[0,1],[0,0.75],[0,0.5],[0,0.25]];outlineConnect=0;gradientColor=none;html=1;whiteSpace=wrap;fontSize=12;fontStyle=0;container=1;pointerEvents=0;collapsible=0;recursiveResize=0;shape=mxgraph.aws4.group;grIcon=mxgraph.aws4.group_security_group;grStroke=0;strokeColor=#00A4A6;fillColor=#E6F6F7;verticalAlign=top;align=left;spacingLeft=30;fontColor=#147EBA;dashed=0;" parent="BO9AZAVn0g_Hce8t9gI5-25" vertex="1">
          <mxGeometry x="80" y="90" width="200" height="340" as="geometry" />
        </mxCell>
        <mxCell id="BO9AZAVn0g_Hce8t9gI5-24" value="EC2" style="outlineConnect=0;dashed=0;verticalLabelPosition=bottom;verticalAlign=top;align=center;html=1;shape=mxgraph.aws3.ec2;fillColor=#F58534;gradientColor=none;" parent="BO9AZAVn0g_Hce8t9gI5-28" vertex="1">
          <mxGeometry x="74.75" y="50" width="55" height="71" as="geometry" />
        </mxCell>
        <mxCell id="BO9AZAVn0g_Hce8t9gI5-51" value="RDS Read Replica" style="outlineConnect=0;dashed=0;verticalLabelPosition=bottom;verticalAlign=top;align=center;html=1;shape=mxgraph.aws3.rds_db_instance_read_replica;fillColor=#2E73B8;gradientColor=none;" parent="BO9AZAVn0g_Hce8t9gI5-28" vertex="1">
          <mxGeometry x="80.25" y="210" width="49.5" height="66" as="geometry" />
        </mxCell>
        <mxCell id="BO9AZAVn0g_Hce8t9gI5-27" value="AWS S3 Bucket" style="outlineConnect=0;dashed=0;verticalLabelPosition=bottom;verticalAlign=top;align=center;html=1;shape=mxgraph.aws3.s3;fillColor=#E05243;gradientColor=none;" parent="BO9AZAVn0g_Hce8t9gI5-25" vertex="1">
          <mxGeometry x="140" y="470" width="60" height="73" as="geometry" />
        </mxCell>
        <mxCell id="BO9AZAVn0g_Hce8t9gI5-35" value="" style="endArrow=classic;html=1;rounded=0;exitX=0;exitY=0.5;exitDx=0;exitDy=0;exitPerimeter=0;" parent="1" source="BO9AZAVn0g_Hce8t9gI5-2" edge="1">
          <mxGeometry width="50" height="50" relative="1" as="geometry">
            <mxPoint x="560" y="320" as="sourcePoint" />
            <mxPoint x="400" y="490" as="targetPoint" />
            <Array as="points">
              <mxPoint x="400" y="314" />
            </Array>
          </mxGeometry>
        </mxCell>
        <mxCell id="BO9AZAVn0g_Hce8t9gI5-36" value="&lt;b&gt;&lt;font style=&quot;font-size: 14px;&quot;&gt;Primary&lt;/font&gt;&lt;/b&gt;" style="text;html=1;align=center;verticalAlign=middle;whiteSpace=wrap;rounded=0;" parent="1" vertex="1">
          <mxGeometry x="460" y="290" width="60" height="30" as="geometry" />
        </mxCell>
        <mxCell id="BO9AZAVn0g_Hce8t9gI5-37" value="" style="endArrow=classic;html=1;rounded=0;entryX=0.5;entryY=0;entryDx=0;entryDy=0;entryPerimeter=0;exitX=1;exitY=0.5;exitDx=0;exitDy=0;exitPerimeter=0;" parent="1" source="BO9AZAVn0g_Hce8t9gI5-2" edge="1">
          <mxGeometry width="50" height="50" relative="1" as="geometry">
            <mxPoint x="690" y="310" as="sourcePoint" />
            <mxPoint x="895" y="490" as="targetPoint" />
            <Array as="points">
              <mxPoint x="895" y="314" />
            </Array>
          </mxGeometry>
        </mxCell>
        <mxCell id="BO9AZAVn0g_Hce8t9gI5-38" value="&lt;b&gt;&lt;font style=&quot;font-size: 14px;&quot;&gt;Standby&lt;/font&gt;&lt;/b&gt;" style="text;html=1;align=center;verticalAlign=middle;whiteSpace=wrap;rounded=0;" parent="1" vertex="1">
          <mxGeometry x="750" y="290" width="60" height="30" as="geometry" />
        </mxCell>
        <mxCell id="BO9AZAVn0g_Hce8t9gI5-42" value="" style="endArrow=classic;startArrow=classic;html=1;rounded=0;" parent="1" edge="1">
          <mxGeometry width="50" height="50" relative="1" as="geometry">
            <mxPoint x="425" y="690" as="sourcePoint" />
            <mxPoint x="860" y="690" as="targetPoint" />
          </mxGeometry>
        </mxCell>
        <mxCell id="BO9AZAVn0g_Hce8t9gI5-43" value="" style="endArrow=classic;startArrow=classic;html=1;rounded=0;" parent="1" edge="1">
          <mxGeometry width="50" height="50" relative="1" as="geometry">
            <mxPoint x="430" y="870" as="sourcePoint" />
            <mxPoint x="850" y="870" as="targetPoint" />
          </mxGeometry>
        </mxCell>
        <mxCell id="BO9AZAVn0g_Hce8t9gI5-44" value="User" style="sketch=0;outlineConnect=0;fontColor=#232F3E;gradientColor=none;fillColor=#232F3D;strokeColor=none;dashed=0;verticalLabelPosition=bottom;verticalAlign=top;align=center;html=1;fontSize=12;fontStyle=0;aspect=fixed;pointerEvents=1;shape=mxgraph.aws4.user;" parent="1" vertex="1">
          <mxGeometry x="620" y="150" width="48" height="48" as="geometry" />
        </mxCell>
        <mxCell id="BO9AZAVn0g_Hce8t9gI5-45" value="" style="endArrow=classic;html=1;rounded=0;entryX=0.5;entryY=0;entryDx=0;entryDy=0;entryPerimeter=0;" parent="1" target="BO9AZAVn0g_Hce8t9gI5-2" edge="1">
          <mxGeometry width="50" height="50" relative="1" as="geometry">
            <mxPoint x="644" y="220" as="sourcePoint" />
            <mxPoint x="930" y="140" as="targetPoint" />
          </mxGeometry>
        </mxCell>
        <mxCell id="BO9AZAVn0g_Hce8t9gI5-46" value="&lt;b&gt;&lt;font style=&quot;font-size: 14px;&quot;&gt;cross-region replication&lt;/font&gt;&lt;/b&gt;" style="text;html=1;align=center;verticalAlign=middle;whiteSpace=wrap;rounded=0;" parent="1" vertex="1">
          <mxGeometry x="588" y="830" width="112" height="30" as="geometry" />
        </mxCell>
        <mxCell id="BO9AZAVn0g_Hce8t9gI5-48" value="&lt;span style=&quot;font-size: 14px;&quot;&gt;&lt;b&gt;replication&lt;/b&gt;&lt;/span&gt;" style="text;html=1;align=center;verticalAlign=middle;whiteSpace=wrap;rounded=0;" parent="1" vertex="1">
          <mxGeometry x="589" y="630" width="112" height="30" as="geometry" />
        </mxCell>
        <mxCell id="BO9AZAVn0g_Hce8t9gI5-26" value="VPC" style="sketch=0;outlineConnect=0;gradientColor=none;html=1;whiteSpace=wrap;fontSize=12;fontStyle=0;shape=mxgraph.aws4.group;grIcon=mxgraph.aws4.group_vpc;strokeColor=#879196;fillColor=none;verticalAlign=top;align=left;spacingLeft=30;fontColor=#879196;dashed=0;" parent="1" vertex="1">
          <mxGeometry x="735" y="415" width="300" height="390" as="geometry" />
        </mxCell>
        <mxCell id="I5FXzIUGxQxFdgfo1vXz-4" value="" style="endArrow=classic;html=1;rounded=0;entryX=0.5;entryY=0.02;entryDx=0;entryDy=0;entryPerimeter=0;" edge="1" parent="1">
          <mxGeometry width="50" height="50" relative="1" as="geometry">
            <mxPoint x="890" y="590" as="sourcePoint" />
            <mxPoint x="890" y="651" as="targetPoint" />
          </mxGeometry>
        </mxCell>
        <mxCell id="I5FXzIUGxQxFdgfo1vXz-6" value="" style="endArrow=classic;html=1;rounded=0;exitX=0.617;exitY=0.321;exitDx=0;exitDy=0;exitPerimeter=0;entryX=1;entryY=0.5;entryDx=0;entryDy=0;entryPerimeter=0;" edge="1" parent="1" source="BO9AZAVn0g_Hce8t9gI5-26" target="BO9AZAVn0g_Hce8t9gI5-27">
          <mxGeometry width="50" height="50" relative="1" as="geometry">
            <mxPoint x="1130" y="520" as="sourcePoint" />
            <mxPoint x="1180" y="470" as="targetPoint" />
            <Array as="points">
              <mxPoint x="1010" y="540" />
              <mxPoint x="1010" y="866" />
            </Array>
          </mxGeometry>
        </mxCell>
        <mxCell id="I5FXzIUGxQxFdgfo1vXz-8" value="&lt;b&gt;&lt;font style=&quot;font-size: 14px;&quot;&gt;application&lt;br&gt;code&lt;/font&gt;&lt;/b&gt;" style="text;html=1;align=center;verticalAlign=middle;whiteSpace=wrap;rounded=0;" vertex="1" parent="1">
          <mxGeometry x="920" y="820" width="60" height="30" as="geometry" />
        </mxCell>
      </root>
    </mxGraphModel>
  </diagram>
</mxfile>
